<svg width="114" height="14" viewBox="0 0 114 14" fill="none" xmlns="http://www.w3.org/2000/svg">
<path d="M0 13.8005H2.87249V8.17659H8.39869V5.80344H2.87249V2.5594H8.99577V0.186137H0V13.8005ZM14.7309 14C17.8224 14 19.7463 11.8794 19.7463 8.73506C19.7463 5.57069 17.8224 3.45681 14.7309 3.45681C11.6394 3.45681 9.71553 5.57069 9.71553 8.73506C9.71553 11.8794 11.6394 14 14.7309 14ZM14.7442 11.8062C13.3178 11.8062 12.5881 10.4967 12.5881 8.71509C12.5881 6.93349 13.3178 5.61728 14.7442 5.61728C16.1439 5.61728 16.8738 6.93349 16.8738 8.71509C16.8738 10.4967 16.1439 11.8062 14.7442 11.8062ZM26.188 14C29.2794 14 31.2033 11.8794 31.2033 8.73506C31.2033 5.57069 29.2794 3.45681 26.188 3.45681C23.0965 3.45681 21.1726 5.57069 21.1726 8.73506C21.1726 11.8794 23.0965 14 26.188 14ZM26.2012 11.8062C24.7749 11.8062 24.0452 10.4967 24.0452 8.71509C24.0452 6.93349 24.7749 5.61728 26.2012 5.61728C27.601 5.61728 28.3307 6.93349 28.3307 8.71509C28.3307 10.4967 27.601 11.8062 26.2012 11.8062ZM36.7958 13.9667C38.4411 13.9667 39.2969 13.0161 39.6883 12.1653H39.8077V13.8005H42.594V0.186137H39.7745V5.30487H39.6883C39.3101 4.47392 38.4941 3.45681 36.7892 3.45681C34.5535 3.45681 32.6628 5.19848 32.6628 8.70844C32.6628 12.1253 34.4738 13.9667 36.7958 13.9667ZM37.6914 11.7132C36.3049 11.7132 35.5486 10.4767 35.5486 8.69513C35.5486 6.92683 36.2916 5.71036 37.6914 5.71036C39.0646 5.71036 39.8342 6.87369 39.8342 8.69513C39.8342 10.5166 39.0514 11.7132 37.6914 11.7132ZM44.4532 2.5594H48.6127V13.8005H51.4521V2.5594H55.6117V0.186137H44.4532V2.5594ZM60.5221 14C63.6139 14 65.5381 11.8794 65.5381 8.73506C65.5381 5.57069 63.6139 3.45681 60.5221 3.45681C57.431 3.45681 55.5071 5.57069 55.5071 8.73506C55.5071 11.8794 57.431 14 60.5221 14ZM60.5356 11.8062C59.1096 11.8062 58.3799 10.4967 58.3799 8.71509C58.3799 6.93349 59.1096 5.61728 60.5356 5.61728C61.9357 5.61728 62.6653 6.93349 62.6653 8.71509C62.6653 10.4967 61.9357 11.8062 60.5356 11.8062ZM73.6054 13.9867C75.2763 13.9867 76.4844 13.3551 77.3998 12.245H77.4724L77.6385 13.8005H79.6021V6.51468H73.7974V8.68181H76.7698C76.7159 10.3305 75.5555 11.4406 73.6178 11.4406C71.4819 11.4406 70.1026 9.82528 70.1026 6.98008C70.1026 4.14154 71.5753 2.54609 73.651 2.54609C75.131 2.54609 76.2249 3.29727 76.584 4.58686H79.489C79.1175 1.88133 76.6764 0 73.6054 0C70.0154 0 67.1893 2.59258 67.1893 7.0066C67.1893 11.3143 69.7964 13.9867 73.6054 13.9867ZM86.1365 14C89.2283 14 91.1515 11.8794 91.1515 8.73506C91.1515 5.57069 89.2283 3.45681 86.1365 3.45681C83.0447 3.45681 81.1216 5.57069 81.1216 8.73506C81.1216 11.8794 83.0447 14 86.1365 14ZM86.15 11.8062C84.724 11.8062 83.9933 10.4967 83.9933 8.71509C83.9933 6.93349 84.724 5.61728 86.15 5.61728C87.5501 5.61728 88.2797 6.93349 88.2797 8.71509C88.2797 10.4967 87.5501 11.8062 86.15 11.8062ZM97.5935 14C100.685 14 102.609 11.8794 102.609 8.73506C102.609 5.57069 100.685 3.45681 97.5935 3.45681C94.5017 3.45681 92.5785 5.57069 92.5785 8.73506C92.5785 11.8794 94.5017 14 97.5935 14ZM97.607 11.8062C96.181 11.8062 95.4513 10.4967 95.4513 8.71509C95.4513 6.93349 96.181 5.61728 97.607 5.61728C99.007 5.61728 99.7366 6.93349 99.7366 8.71509C99.7366 10.4967 99.007 11.8062 97.607 11.8062ZM108.201 13.9667C109.846 13.9667 110.703 13.0161 111.094 12.1653H111.213V13.8005H114V0.186137H111.18V5.30487H111.094C110.716 4.47392 109.899 3.45681 108.195 3.45681C105.96 3.45681 104.069 5.19848 104.069 8.70844C104.069 12.1253 105.88 13.9667 108.201 13.9667ZM109.097 11.7132C107.711 11.7132 106.954 10.4767 106.954 8.69513C106.954 6.92683 107.697 5.71036 109.097 5.71036C110.47 5.71036 111.24 6.87369 111.24 8.69513C111.24 10.5166 110.457 11.7132 109.097 11.7132Z" fill="#93C22F"/>
</svg>
